<?xml version="1.0" encoding="iso-8859-1"?>
<!-- Generator: Adobe Illustrator 16.0.0, SVG Export Plug-In . SVG Version: 6.00 Build 0)  -->
<!DOCTYPE svg PUBLIC "-//W3C//DTD SVG 1.1//EN" "http://www.w3.org/Graphics/SVG/1.1/DTD/svg11.dtd">
<svg version="1.1" id="Capa_1" xmlns="http://www.w3.org/2000/svg" xmlns:xlink="http://www.w3.org/1999/xlink" x="0px" y="0px"
	 width="94px" height="94px" viewBox="0 0 94 94" style="enable-background:new 0 0 94 94;" xml:space="preserve">
<g>
	<path d="M89,0H5C2.238,0,0,2.238,0,5v84c0,2.762,2.238,5,5,5h84c2.762,0,5-2.238,5-5V5C94,2.238,91.762,0,89,0z M79.631,38.007
		c-0.121,2.981-0.708,5.878-1.643,8.708c-2.719,7.292-8.213,11.862-14.924,15.243c-6.193,3.117-11.803,3.694-18.577,3.114
		c-2.148-0.184-3.971-1.826-4.306-3.861c-0.164-0.992,0.21-1.934,0.854-2.738c1.448-1.813,3.518-2.594,5.604-3.312
		c2.437-0.842,4.745-1.948,6.767-3.534c1.532-1.206,2.821-2.681,3.714-4.451c0.084-0.165,0.197-0.313,0.297-0.469
		c0.239-0.247,0.326-0.572,0.459-0.875c0.816-1.902,1.176-3.91,1.221-5.963c0.105-4.86-1.229-9.355-3.726-13.486
		c-1.731-2.872-4.229-4.912-7.362-6.146c-3.146-1.242-6.439-1.404-9.748-1.15c-2.141,0.165-2.945,1.196-2.947,3.331l0.012,45.19
		c-0.006,4.869-0.006,9.744-0.012,14.611c-0.002,2.122-1.296,3.422-3.416,3.422c-4.705,0.006-9.41,0.004-14.116,0.004
		c-2.269-0.004-3.439-1.196-3.44-3.498l0.002-70.211c0-2.205,1.275-3.552,3.473-3.576l27.221,0.003
		c5.557,0.23,11.082,0.561,16.41,2.3c8.709,2.843,14.166,8.868,16.912,17.47C79.384,31.332,79.771,34.645,79.631,38.007z"/>
</g>
<g>
</g>
<g>
</g>
<g>
</g>
<g>
</g>
<g>
</g>
<g>
</g>
<g>
</g>
<g>
</g>
<g>
</g>
<g>
</g>
<g>
</g>
<g>
</g>
<g>
</g>
<g>
</g>
<g>
</g>
</svg>
